<svg width="50" height="50" viewBox="0 0 50 50" fill="none" xmlns="http://www.w3.org/2000/svg">
  <rect
    x="5"
    y="12"
    width="40"
    height="28"
    rx="4"
    stroke="#E4E4DE"
    stroke-width="1.5"
  />
  <path
    d="M12 12V9.5C12 8.67157 12.6716 8 13.5 8H18C18.8284 8 19.5 8.67157 19.5 9.5V12"
    stroke="#E4E4DE"
    stroke-width="1.5"
    stroke-linecap="round"
    stroke-linejoin="round"
  />
  <path
    d="M21 12V9.5C21 8.67157 21.6716 8 22.5 8H27C27.8284 8 28.5 8.67157 28.5 9.5V12"
    stroke="#E4E4DE"
    stroke-width="1.5"
    stroke-linecap="round"
    stroke-linejoin="round"
  />
  <path
    d="M30 12V9.5C30 8.67157 30.6716 8 31.5 8H36C36.8284 8 37.5 8.67157 37.5 9.5V12"
    stroke="#E4E4DE"
    stroke-width="1.5"
    stroke-linecap="round"
    stroke-linejoin="round"
  />
  <path
    d="M5 24H45"
    stroke="#E4E4DE"
    stroke-width="1.5"
    stroke-linejoin="round"
  />
  <path
    d="M18 24V40"
    stroke="#E4E4DE"
    stroke-width="1.5"
    stroke-linecap="round"
    stroke-linejoin="round"
  />
  <path
    d="M32 24V40"
    stroke="#E4E4DE"
    stroke-width="1.5"
    stroke-linecap="round"
    stroke-linejoin="round"
  />
</svg>