<svg width="50" height="50" viewBox="0 0 50 50" fill="none" xmlns="http://www.w3.org/2000/svg">
<path d="M8.33333 31.25V14.5126C8.33333 10.5675 8.33333 8.59497 9.55372 7.3694C10.2341 6.68611 11.1457 6.38378 12.5 6.25H22.9167" stroke="#E4E4DE" stroke-width="1.5" stroke-linecap="round" stroke-linejoin="round"/>
<path d="M29.7769 20.223L30.3072 19.6926H30.3072L29.7769 20.223ZM41.0565 20.223L40.5261 19.6926L40.5261 19.6926L41.0565 20.223ZM41.0565 8.94337L40.5261 9.47369V9.4737L41.0565 8.94337ZM33.0417 20.8332C33.0417 20.419 32.7059 20.0832 32.2917 20.0832C31.8775 20.0832 31.5417 20.419 31.5417 20.8332H33.0417ZM31.5417 24.9998C31.5417 25.4141 31.8775 25.7498 32.2917 25.7498C32.7059 25.7498 33.0417 25.4141 33.0417 24.9998H31.5417ZM39.2917 20.8332C39.2917 20.419 38.9559 20.0832 38.5417 20.0832C38.1275 20.0832 37.7917 20.419 37.7917 20.8332H39.2917ZM37.7917 24.9998C37.7917 25.4141 38.1275 25.7498 38.5417 25.7498C38.9559 25.7498 39.2917 25.4141 39.2917 24.9998H37.7917ZM33.0417 4.1665C33.0417 3.75229 32.7059 3.4165 32.2917 3.4165C31.8775 3.4165 31.5417 3.75229 31.5417 4.1665H33.0417ZM31.5417 8.33317C31.5417 8.74738 31.8775 9.08317 32.2917 9.08317C32.7059 9.08317 33.0417 8.74738 33.0417 8.33317H31.5417ZM39.2917 4.1665C39.2917 3.75229 38.9559 3.4165 38.5417 3.4165C38.1275 3.4165 37.7917 3.75229 37.7917 4.1665H39.2917ZM37.7917 8.33317C37.7917 8.74738 38.1275 9.08317 38.5417 9.08317C38.9559 9.08317 39.2917 8.74738 39.2917 8.33317H37.7917ZM29.1667 12.2082C29.5809 12.2082 29.9167 11.8724 29.9167 11.4582C29.9167 11.044 29.5809 10.7082 29.1667 10.7082V12.2082ZM25 10.7082C24.5858 10.7082 24.25 11.044 24.25 11.4582C24.25 11.8724 24.5858 12.2082 25 12.2082V10.7082ZM29.1667 18.4582C29.5809 18.4582 29.9167 18.1224 29.9167 17.7082C29.9167 17.294 29.5809 16.9582 29.1667 16.9582V18.4582ZM25 16.9582C24.5858 16.9582 24.25 17.294 24.25 17.7082C24.25 18.1224 24.5858 18.4582 25 18.4582V16.9582ZM45.8333 12.2082C46.2475 12.2082 46.5833 11.8724 46.5833 11.4582C46.5833 11.044 46.2475 10.7082 45.8333 10.7082V12.2082ZM41.6667 10.7082C41.2525 10.7082 40.9167 11.044 40.9167 11.4582C40.9167 11.8724 41.2525 12.2082 41.6667 12.2082V10.7082ZM45.8333 18.4582C46.2475 18.4582 46.5833 18.1224 46.5833 17.7082C46.5833 17.294 46.2475 16.9582 45.8333 16.9582V18.4582ZM41.6667 16.9582C41.2525 16.9582 40.9167 17.294 40.9167 17.7082C40.9167 18.1224 41.2525 18.4582 41.6667 18.4582V16.9582ZM33.3333 9.08317H37.5V7.58317H33.3333V9.08317ZM40.9167 12.4998V16.6665H42.4167V12.4998H40.9167ZM37.5 20.0832H33.3333V21.5832H37.5V20.0832ZM29.9167 16.6665V12.4998H28.4167V16.6665H29.9167ZM33.3333 20.0832C32.33 20.0832 31.653 20.0816 31.1473 20.0136C30.6631 19.9485 30.4497 19.8352 30.3072 19.6926L29.2465 20.7533C29.7142 21.221 30.2969 21.4128 30.9474 21.5002C31.5763 21.5848 32.3724 21.5832 33.3333 21.5832V20.0832ZM28.4167 16.6665C28.4167 17.6274 28.4151 18.4235 28.4996 19.0524C28.5871 19.7029 28.7789 20.2856 29.2465 20.7533L30.3072 19.6926C30.1647 19.5501 30.0513 19.3367 29.9863 18.8526C29.9183 18.3468 29.9167 17.6698 29.9167 16.6665H28.4167ZM40.9167 16.6665C40.9167 17.6698 40.9151 18.3468 40.8471 18.8526C40.782 19.3367 40.6687 19.5501 40.5261 19.6926L41.5868 20.7533C42.0545 20.2856 42.2462 19.7029 42.3337 19.0524C42.4183 18.4235 42.4167 17.6274 42.4167 16.6665H40.9167ZM37.5 21.5832C38.4609 21.5832 39.257 21.5848 39.8859 21.5002C40.5364 21.4128 41.1191 21.221 41.5868 20.7533L40.5261 19.6926C40.3836 19.8352 40.1702 19.9485 39.686 20.0136C39.1803 20.0816 38.5033 20.0832 37.5 20.0832V21.5832ZM37.5 9.08317C38.5033 9.08317 39.1803 9.08476 39.686 9.15276C40.1702 9.21785 40.3836 9.33117 40.5261 9.47369L41.5868 8.41304C41.1191 7.94536 40.5364 7.75359 39.8859 7.66613C39.257 7.58158 38.4609 7.58317 37.5 7.58317V9.08317ZM42.4167 12.4998C42.4167 11.5389 42.4183 10.7428 42.3337 10.1139C42.2462 9.46343 42.0545 8.88071 41.5868 8.41303L40.5261 9.4737C40.6687 9.61622 40.782 9.82964 40.8471 10.3138C40.9151 10.8195 40.9167 11.4965 40.9167 12.4998H42.4167ZM33.3333 7.58317C32.3724 7.58317 31.5763 7.58158 30.9474 7.66613C30.2969 7.75359 29.7142 7.94536 29.2465 8.41303L30.3072 9.4737C30.4497 9.33117 30.6631 9.21785 31.1473 9.15276C31.653 9.08476 32.33 9.08317 33.3333 9.08317V7.58317ZM29.9167 12.4998C29.9167 11.4965 29.9183 10.8195 29.9863 10.3138C30.0513 9.82964 30.1647 9.61622 30.3072 9.4737L29.2465 8.41303C28.7789 8.88071 28.5871 9.46343 28.4996 10.1139C28.4151 10.7428 28.4167 11.5389 28.4167 12.4998H29.9167ZM31.5417 20.8332V24.9998H33.0417V20.8332H31.5417ZM37.7917 20.8332V24.9998H39.2917V20.8332H37.7917ZM31.5417 4.1665V8.33317H33.0417V4.1665H31.5417ZM37.7917 4.1665V8.33317H39.2917V4.1665H37.7917ZM29.1667 10.7082H25V12.2082H29.1667V10.7082ZM29.1667 16.9582H25V18.4582H29.1667V16.9582ZM45.8333 10.7082H41.6667V12.2082H45.8333V10.7082ZM45.8333 16.9582H41.6667V18.4582H45.8333V16.9582Z" fill="#E4E4DE"/>
<path d="M7.2867 33.3655L8.37402 31.25H41.5662L42.7131 33.3655C45.7191 38.9103 46.4679 41.6827 45.3253 43.758C44.1827 45.8333 41.1533 45.8333 35.0946 45.8333L14.9055 45.8333C8.8467 45.8333 5.81732 45.8333 4.67473 43.758C3.53214 41.6827 4.28071 38.9103 7.2867 33.3655Z" stroke="#E4E4DE" stroke-width="1.5" stroke-linecap="round" stroke-linejoin="round"/>
</svg>
